<?xml version="1.0" encoding="UTF-8" standalone="no"?>
<!-- Created with Inkscape (http://www.inkscape.org/) -->

<svg
   version="1.1"
   id="svg1"
   width="1333.3333"
   height="1333.3333"
   viewBox="0 0 1333.3333 1333.3333"
   sodipodi:docname="Wolfetrax2.eps"
   xmlns:inkscape="http://www.inkscape.org/namespaces/inkscape"
   xmlns:sodipodi="http://sodipodi.sourceforge.net/DTD/sodipodi-0.dtd"
   xmlns="http://www.w3.org/2000/svg"
   xmlns:svg="http://www.w3.org/2000/svg">
  <defs
     id="defs1" />
  <sodipodi:namedview
     id="namedview1"
     pagecolor="#ffffff"
     bordercolor="#000000"
     borderopacity="0.25"
     inkscape:showpageshadow="2"
     inkscape:pageopacity="0.0"
     inkscape:pagecheckerboard="0"
     inkscape:deskcolor="#d1d1d1">
    <inkscape:page
       x="0"
       y="0"
       inkscape:label="1"
       id="page1"
       width="1333.3333"
       height="1333.3333"
       margin="0"
       bleed="0" />
  </sodipodi:namedview>
  <g
     id="g1"
     inkscape:groupmode="layer"
     inkscape:label="1">
    <g
       id="group-R5">
      <path
         id="path2"
         d="M 0,10000 H 10000 V 0 H 0 v 10000 0"
         style="fill:#ffffff;fill-opacity:1;fill-rule:evenodd;stroke:none"
         transform="matrix(0.13333333,0,0,-0.13333333,0,1333.3333)" />
      <path
         id="path3"
         d="m 4005.76,5124.04 c -133.98,-24.7 -435.67,-481.09 -282.67,-526.29 147.97,-43.69 349.4,307.51 352.88,434 -32.33,24.37 -57.91,53.34 -70.21,92.29 z m 865.93,-240.96 c -129.92,-162.89 -245.64,-354.44 -323.56,-546.61 -209.6,-516.76 80.3,-342.64 250.54,169.64 37.55,112.93 73.5,254.11 73.02,376.97 z m 539.13,73.79 c 185.47,-142.7 391.26,301.06 143.31,141.67 -54.98,-35.36 -105.74,-87.45 -143.31,-141.67 z M 2592.61,4455.33 c -529.78,-688.46 -819.21,-202.09 -418.28,498.3 106.36,185.84 276.96,406.16 480.11,495.25 -233.74,38.14 -566.17,-170.05 -714.03,-332.59 -612.98,-673.85 -59.24,-1510.45 896.84,-1103.65 496.32,211.18 907.94,551.7 1340.7,-5.24 180.35,-232.13 -21.88,-68.84 -278.85,-32.8 -112.69,15.78 -225.1,14.81 -335.62,0.07 307.13,-41.34 407.62,-152.35 351.98,-140.76 -411.77,85.71 -809.28,-19.85 -980.23,-77.1 -28.04,-11.52 -57.09,-22.26 -86.99,-32.04 l -0.62,-0.35 0.07,0.14 C 2533.7,3621.2 2129,3612.31 1859.8,3764.79 c -492.75,279.13 -489.4,1007.55 -113.31,1405.14 288.1,304.56 715.26,539.27 1135.55,361.49 77.31,-32.69 44.08,-145.05 -36.43,-150.77 -309.7,-22.03 -752.02,-753.55 -704.32,-1045.07 50.54,-309.03 890.4,1077.49 981.64,1095.76 66.02,13.23 120.78,-65.02 78.74,-124.88 -163.6,-233.08 -474.61,-625.96 -483.36,-915.28 -8.56,-283.32 315.48,179.7 361.11,235.24 206.86,251.7 366.17,625.42 578.01,775.42 22.48,18.51 45.35,34.19 67.99,45.59 172.34,86.94 349.81,57.65 409.43,44.74 206.5,-44.77 282.79,66.78 159.85,96.4 -161.54,38.95 -325.7,143.13 -357.84,154.66 -45.49,16.28 12.74,120.95 -54.26,227.55 -92.43,147.07 -237.96,191.51 -501.13,263.65 50.44,-128.49 303,-323.22 260.51,-319.67 -286.31,24.03 -409.95,284.15 -464.11,379.96 -89.99,159.33 717.61,-40.03 851.71,-289.77 36.23,-67.51 42.38,-134.07 42.15,-172.89 298.01,-144.59 424.75,-111.67 448.83,-158.46 17.85,-34.67 -2.13,-421.27 -376.89,-339.62 -31.94,6.96 -61.53,14.32 -89.25,21.54 -41.94,2.55 -140.57,27.26 -222.29,-5.64 -274.42,-81.53 -716.65,-1210.94 -1089.83,-1210.94 -187.34,0 -185.34,178.86 -149.69,316.39 z m 3183.76,198.03 c -349.78,-352.78 -805.56,-270.86 -603.86,208.97 -60.22,-13.78 -122.85,-12.67 -183.41,-0.47 41.78,-251.57 -258.58,-1115.6 -558.92,-1020.72 -189.14,59.74 -35.18,464.26 28.13,622.45 -148.16,-84.05 -393.57,18.13 -106.47,528.7 -48.33,-5.93 -99.7,-7.72 -147.54,-2.08 -29.8,-220.2 -215.46,-553.55 -463.57,-553.55 -212.15,0 -246,209.46 -185.98,375.23 61.92,171.16 255.57,423.26 452.46,435.45 77.65,59.05 182.83,-36.69 210.98,-112.34 66.4,-27.72 133.84,-38.14 204.39,-22.09 57.33,93.96 212.4,324.84 224.95,421.9 13.31,103.03 275.73,124.98 88.83,-209.02 -55.45,-99.09 -426.81,-674.02 -363.32,-726.52 12.72,-10.62 61.5,20.94 71.35,27.49 252.94,168.6 518.04,634.12 623.09,917.79 36.48,98.46 180.55,58.36 154.3,-41.33 -38.89,-147.6 -158.68,-329.79 -242.55,-461.66 56.72,-64.85 205.1,-65.47 278.24,-25.51 93.64,135.07 292.53,326.48 470.12,226.48 264.58,-148.99 -89.36,-628.79 -402.18,-421.06 -196.17,-410.44 291.35,-220.83 484.59,8.28 64.94,73.17 146.72,166.39 149.97,134.28 8.91,-88.26 -103.3,-229.65 -183.6,-310.67 v 0"
         style="fill:#231f20;fill-opacity:1;fill-rule:evenodd;stroke:none"
         transform="matrix(0.13333333,0,0,-0.13333333,0,1333.3333)" />
      <path
         id="path4"
         d="m 6256.48,5528.77 c 36.35,48.14 68.8,77.81 91.26,71.81 35.18,-9.37 52.89,-28.33 59.08,-52.43 181.88,23.82 382.76,48.73 609.31,47.03 307.17,-41.37 407.65,-152.4 352.02,-140.81 -411.8,85.75 -809.29,-19.86 -980.23,-77.13 -16.1,-6.57 -32.29,-12.77 -48.55,-18.62 l -12.47,-23.22 c -50.16,-61.15 -395.81,-696.65 -346.95,-735.23 11.77,-9.24 56.04,20.25 64.94,26.38 227.71,157.31 325.59,387.99 406.96,640.29 33.15,102.76 155.9,82.06 133.74,-21.91 421.37,-29.29 -71.83,-567.87 -30.42,-649.11 93.92,11.44 337.83,419.58 457.44,526.21 370.01,329.97 639.55,14.72 481.18,-21.35 -79.62,-18.17 -110.31,140.55 -353.19,-78.98 -397.57,-359.32 -282.7,-744.35 173.08,-2.79 47.1,76.68 195.37,42.28 127.02,-98.29 -357.87,-736.28 308.27,2.08 382.68,276.77 45.96,169.6 241.74,43.78 250.19,-157.14 0.97,-22.33 1.89,-44.6 2.79,-66.92 292.97,245.31 236.51,297.02 276.19,338.59 69.39,72.66 316.88,-28.82 -104.45,-363.94 -56.16,-44.58 -111.69,-89.91 -166.95,-135.6 26.73,-512.63 291.18,83.65 380.54,119.34 51.96,20.74 80.21,-26.52 49.64,-72.76 -77.34,-116.93 -203.49,-411.41 -364.31,-411.41 -144.28,0 -189.31,124.71 -214.02,243.7 -270.16,-225.38 -230.03,-375.59 -322.59,-375.59 -162.41,0 -26.95,221.46 28.35,275.13 l 281.36,251.5 c 0.59,62.14 10.89,215.26 -30.8,267.45 -78.48,-194.62 -381.61,-779.53 -628.24,-648.14 -46.72,24.87 -61.81,110.52 -60.16,175.42 -146.14,-223.58 -412.9,-289.04 -454.1,-45.96 -151.76,-204.57 -300.75,-189.13 -342.62,-41.68 -53.19,187.42 184.25,377.79 197.06,533.56 -16.05,7.51 -65.24,2.12 -86.32,-0.85 -78.42,-148.93 -385.86,-754.23 -626.91,-620.9 -66.94,36.93 -75.69,121.06 -67.66,192.09 44.26,232.62 180.04,429.82 290.93,636.68 l 5.1,9.09 c -15.15,-2.79 -30.38,-5.48 -45.68,-7.87 -345.02,-54.17 -761.64,-11.13 -624.81,322.53 166.06,-90.94 419.72,-114.93 605.7,-104.47 65.72,3.7 133.83,10.83 204.87,19.53 v 0"
         style="fill:#231f20;fill-opacity:1;fill-rule:evenodd;stroke:none"
         transform="matrix(0.13333333,0,0,-0.13333333,0,1333.3333)" />
    </g>
  </g>
</svg>
